<svg width="25" height="25" viewBox="0 0 25 25" fill="none" xmlns="http://www.w3.org/2000/svg">
<path d="M25 19.3711C24.0906 19.6023 23.5281 19.3812 23.0234 18.6234L19.4344 13.6578L18.9156 12.9703L14.7242 18.6398C14.2453 19.3218 13.743 19.6187 12.8492 19.3773L18.2164 12.1726L13.2195 5.66481C14.0789 5.49762 14.6727 5.58278 15.2 6.35231L18.9227 11.3797L22.6727 6.37965C23.1531 5.69762 23.6695 5.43825 24.532 5.68981L22.5945 8.25856L19.9695 11.6765C19.657 12.0672 19.7 12.3343 19.9875 12.7117L25 19.3711ZM0.00625 12.0523L0.445312 9.89293C1.64062 5.6195 6.53906 3.84371 9.91719 6.48434C11.8914 8.03746 12.382 10.2343 12.2844 12.6953H1.15625C0.989062 17.125 4.17734 19.7984 8.24219 18.4343C9.66797 17.9554 10.5078 16.839 10.9281 15.4422C11.1414 14.7422 11.4945 14.6328 12.1523 14.8328C11.8164 16.5797 11.0586 18.039 9.45703 18.9523C7.06406 20.3195 3.64844 19.8773 1.85156 17.9773C0.78125 16.875 0.339063 15.4781 0.140625 13.9843C0.109375 13.7375 0.046875 13.5023 0 13.2656C0.00416667 12.8614 0.00625 12.4573 0.00625 12.0531V12.0523ZM1.17656 11.7554H11.2328C11.1672 8.55231 9.17266 6.27731 6.44688 6.25778C3.45469 6.23434 1.30625 8.45543 1.17656 11.7554Z" fill="white"/>
</svg>
