<svg width="40" height="40" viewBox="0 0 40 40" fill="none" xmlns="http://www.w3.org/2000/svg">
<g clip-path="url(#clip0_34_18)">
<path fill-rule="evenodd" clip-rule="evenodd" d="M20 0.492188C8.95312 0.492188 0 9.44531 0 20.4922C0 29.3438 5.72656 36.8203 13.6719 39.4688C14.6719 39.6406 15.0469 39.0469 15.0469 38.5156C15.0469 38.0391 15.0234 36.4688 15.0234 34.7891C10 35.7109 8.69531 33.5625 8.29688 32.4375C8.07031 31.8594 7.09375 30.0859 6.25 29.6094C5.54688 29.2344 4.54688 28.3125 6.22656 28.2812C7.80469 28.2578 8.92969 29.7344 9.30469 30.3281C11.1016 33.3516 13.9766 32.5 15.1328 31.9766C15.3047 30.6797 15.8359 29.8047 16.4062 29.3047C11.9531 28.8047 7.30469 27.0781 7.30469 19.4297C7.30469 17.2578 8.07812 15.4531 9.35156 14.0547C9.14844 13.5547 8.45312 11.5078 9.55469 8.75781C9.55469 8.75781 11.2266 8.23438 15.0547 10.8047C16.6562 10.3516 18.3516 10.1328 20.0547 10.1328C21.7578 10.1328 23.4531 10.3594 25.0547 10.8047C28.8828 8.20312 30.5547 8.75781 30.5547 8.75781C31.6562 11.5078 30.9531 13.5547 30.7578 14.0547C32.0312 15.4531 32.8047 17.2266 32.8047 19.4297C32.8047 27.1016 28.1328 28.8047 23.6797 29.3047C24.4062 29.9297 25.0312 31.1328 25.0312 33.0078C25.0312 35.6797 25.0078 37.8359 25.0078 38.5078C25.0078 39.0312 25.3828 39.6562 26.3828 39.4609C34.2734 36.8203 40 29.3203 40 20.4922C40 9.44531 31.0469 0.492188 20 0.492188Z" fill="white"/>
</g>
<defs>
<clipPath id="clip0_34_18">
<rect width="40" height="40" fill="white"/>
</clipPath>
</defs>
</svg>
