<svg width="25" height="25" viewBox="0 0 25 25" fill="none" xmlns="http://www.w3.org/2000/svg">
<g clip-path="url(#clip0_28_232)">
<path d="M0 0H25V25H0" fill="#F7DF1E"/>
<path d="M15.8203 18.0664C16.3737 19.0104 17.1061 19.4824 18.0176 19.4824C19.1569 19.4824 19.7266 19.043 19.7266 18.1641C19.7266 17.627 18.9941 17.1387 17.8223 16.6504C15.6413 15.9342 14.5671 14.7135 14.5996 12.9883C14.5996 11.2305 15.918 9.86328 18.0176 9.86328C19.5801 9.86328 20.6868 10.498 21.3379 11.7676L19.5312 12.9395C19.1406 12.2233 18.6361 11.8815 18.0176 11.9141C17.3014 11.9466 16.9271 12.2884 16.8945 12.9395C16.8945 13.623 17.334 13.916 18.7988 14.5508C20.8984 15.3809 22.0703 16.3086 22.0703 18.3105C21.9727 20.4264 20.6868 21.5169 18.2129 21.582C16.1621 21.582 14.7135 20.7845 13.8672 19.1895L15.8203 18.0664ZM7.51953 18.2617C7.91016 18.8965 8.1543 19.4824 9.13086 19.4824C9.91211 19.4824 10.3027 18.9941 10.3027 18.0176V9.91211H12.6465V17.9199C12.6139 20.2311 11.4421 21.403 9.13086 21.4355C7.4056 21.403 6.23372 20.6868 5.61523 19.2871L7.51953 18.2617Z" fill="black"/>
</g>
<defs>
<clipPath id="clip0_28_232">
<rect width="25" height="25" fill="white"/>
</clipPath>
</defs>
</svg>
