<svg width="40" height="40" viewBox="0 0 40 40" fill="none" xmlns="http://www.w3.org/2000/svg">
<g clip-path="url(#clip0_34_15)">
<path d="M34.0818 34.0824H28.1551V24.8007C28.1551 22.5874 28.1155 19.7382 25.0725 19.7382C21.9857 19.7382 21.5134 22.1497 21.5134 24.6396V34.0818H15.5866V14.9948H21.2763V17.6033H21.356C22.5161 15.6196 24.6733 14.4348 26.9697 14.52C32.9767 14.52 34.0843 18.4713 34.0843 23.6116L34.0818 34.0824ZM8.89929 12.3857C6.99978 12.3861 5.45965 10.8465 5.45931 8.94692C5.45897 7.04737 6.99855 5.5072 8.89806 5.50686C10.7976 5.50652 12.3377 7.04614 12.338 8.94569C12.3382 9.85788 11.976 10.7328 11.3311 11.3779C10.6862 12.0231 9.81147 12.3856 8.89929 12.3857ZM11.8627 34.0824H5.92974V14.9948H11.8627V34.0824ZM37.0365 0.00289107H2.95155C1.34063 -0.0152886 0.0195689 1.27513 -9.15527e-05 2.88607V37.1132C0.0188958 38.7249 1.33985 40.0166 2.95155 39.9997H37.0365C38.6514 40.0197 39.9776 38.7281 39.9999 37.1132V2.8836C39.9769 1.26947 38.6507 -0.0208668 37.0365 0.000161866" fill="#0A66C2"/>
</g>
<defs>
<clipPath id="clip0_34_15">
<rect width="40" height="40" fill="white"/>
</clipPath>
</defs>
</svg>
