<svg width="25" height="25" viewBox="0 0 25 25" fill="none" xmlns="http://www.w3.org/2000/svg">
<path d="M11.5053 3.25024L12.0471 4.26785C12.1689 4.45564 12.3008 4.62186 12.4563 4.77665C12.912 5.22666 13.3367 5.70695 13.7276 6.21425C14.6456 7.41964 15.2648 8.75826 15.707 10.206C15.9722 11.0904 16.1162 11.9976 16.127 12.915C16.1714 15.6576 15.2312 18.0125 13.3356 19.9697C13.0272 20.2801 12.6941 20.5648 12.3395 20.8211C12.1517 20.8211 12.0629 20.6771 11.9855 20.5445C11.8446 20.2986 11.7508 20.0286 11.7089 19.7483C11.6423 19.4165 11.5985 19.0847 11.6201 18.7421V18.5873C11.6049 18.5543 11.4393 3.32828 11.5053 3.25024Z" fill="#599636"/>
<path d="M11.5053 3.21665C11.4831 3.17224 11.4609 3.20586 11.4386 3.22744C11.4494 3.44948 11.372 3.64742 11.2509 3.83648C11.1176 4.02426 10.9413 4.16828 10.7643 4.32308C9.78092 5.17446 9.00693 6.20286 8.3871 7.35306C7.56236 8.90104 7.1373 10.56 7.01676 12.3066C6.96156 12.9366 7.21596 15.1596 7.41454 15.801C7.95633 17.5037 8.92953 18.9305 10.1901 20.1689C10.4997 20.4671 10.8309 20.7437 11.1735 21.0095C11.2731 21.0095 11.2839 20.9207 11.3067 20.8547C11.3504 20.7136 11.3836 20.5694 11.4063 20.4233L11.6283 18.765L11.5053 3.21665Z" fill="#6CAC48"/>
<path d="M12.0471 21.4948C12.0693 21.2411 12.1911 21.0304 12.3237 20.8205C12.1904 20.7653 12.0915 20.6555 12.0141 20.5331C11.9473 20.4171 11.8921 20.295 11.8491 20.1683C11.6943 19.7039 11.6613 19.2166 11.6169 18.7421V18.4547C11.5617 18.4991 11.5503 18.8747 11.5503 18.9305C11.518 19.4321 11.4515 19.9308 11.3511 20.4233C11.3181 20.6225 11.2959 20.8211 11.1735 20.9981C11.1735 21.0203 11.1735 21.0425 11.1842 21.0755C11.3835 21.6617 11.438 22.2587 11.4716 22.8671V23.0891C11.4716 23.3543 11.4609 23.2985 11.681 23.3873C11.7698 23.4203 11.8688 23.4317 11.9576 23.4977C12.0242 23.4977 12.035 23.4425 12.035 23.3981L12.002 23.0333V22.0157C11.9912 21.8381 12.0242 21.6617 12.0464 21.4955L12.0471 21.4948Z" fill="#C2BFBF"/>
</svg>
