<svg width="25" height="25" viewBox="0 0 25 25" fill="none" xmlns="http://www.w3.org/2000/svg">
<g clip-path="url(#clip0_28_236)">
<path d="M12.5 24.9536C12.1118 24.9536 11.7495 24.8619 11.413 24.7014L7.97101 22.8904C7.45342 22.6382 7.71222 22.5465 7.8675 22.5007C8.56625 22.2943 8.69565 22.2485 9.42029 21.8817C9.49793 21.8358 9.60145 21.8588 9.67909 21.9046L12.3188 23.303C12.4224 23.3489 12.5518 23.3489 12.6294 23.303L22.9555 18.0074C23.059 17.9616 23.1108 17.8699 23.1108 17.7552V7.18692C23.1108 7.07229 23.059 6.98059 22.9555 6.93474L12.6294 1.66205C12.5259 1.6162 12.3965 1.6162 12.3188 1.66205L1.99275 6.93474C1.88923 6.98059 1.83747 7.09522 1.83747 7.18692V17.7552C1.83747 17.8469 1.88923 17.9616 1.99275 18.0074L4.81366 19.4517C6.34058 20.1394 7.29814 19.337 7.29814 18.5347V8.10391C7.29814 7.96636 7.42754 7.82881 7.6087 7.82881H8.92857C9.08385 7.82881 9.23913 7.94343 9.23913 8.10391V18.5347C9.23913 20.3457 8.12629 21.4003 6.1853 21.4003C5.59006 21.4003 5.12422 21.4003 3.80435 20.8272L1.08696 19.4517C0.414079 19.1078 0 18.4659 0 17.7782V7.20984C0 6.5221 0.414079 5.8802 1.08696 5.53633L11.413 0.24071C12.06 -0.0802367 12.94 -0.0802367 13.587 0.24071L23.913 5.53633C24.5859 5.8802 25 6.5221 25 7.20984V17.7782C25 18.4659 24.5859 19.1078 23.913 19.4517L13.587 24.7473C13.2505 24.8848 12.8623 24.9536 12.5 24.9536ZM15.6832 17.6865C11.1542 17.6865 10.2226 15.8525 10.2226 14.2936C10.2226 14.156 10.352 14.0185 10.5331 14.0185H11.8789C12.0342 14.0185 12.1636 14.1102 12.1636 14.2477C12.3706 15.4628 12.9658 16.0588 15.7091 16.0588C17.883 16.0588 18.8147 15.6232 18.8147 14.5916C18.8147 13.9956 18.5559 13.56 15.1656 13.262C12.3447 13.0098 10.5849 12.4596 10.5849 10.4652C10.5849 8.60825 12.3447 7.50786 15.295 7.50786C18.6077 7.50786 20.2381 8.51655 20.4451 10.7173C20.4451 10.7861 20.4193 10.8549 20.3675 10.9237C20.3157 10.9695 20.2381 11.0154 20.1605 11.0154H18.8147C18.6853 11.0154 18.5559 10.9237 18.53 10.809C18.2195 9.54817 17.4172 9.13552 15.295 9.13552C12.9141 9.13552 12.6294 9.86911 12.6294 10.4193C12.6294 11.0841 12.9658 11.2905 16.1749 11.6572C19.3582 12.024 20.8592 12.5513 20.8592 14.5228C20.8333 16.5402 18.97 17.6865 15.6832 17.6865Z" fill="#539E43"/>
</g>
<defs>
<clipPath id="clip0_28_236">
<rect width="25" height="25" fill="white"/>
</clipPath>
</defs>
</svg>
