<svg width="25" height="25" viewBox="0 0 25 25" fill="none" xmlns="http://www.w3.org/2000/svg">
<g clip-path="url(#clip0_29_280)">
<path d="M0 12.287C0.0104167 12.2526 0.01875 12.2172 0.0234375 12.1818C0.0427083 11.8187 0.046875 11.4516 0.0859375 11.088C0.146875 9.91094 0.539583 8.77552 1.21875 7.81198C1.52491 7.39763 1.92403 7.06091 2.38401 6.82888C2.84399 6.59686 3.352 6.476 3.86719 6.47604H12.2969C12.4609 6.47604 12.4609 6.47604 12.4609 6.31198V5.72604C12.4609 5.60521 12.4255 5.57812 12.3125 5.57812H6.57448C6.47656 5.57812 6.44167 5.55052 6.44167 5.44896V2.58646C6.46042 2.17187 6.63333 1.77917 6.92604 1.48489C7.31477 1.07116 7.7988 0.758782 8.33594 0.574999C8.99191 0.339146 9.67391 0.183162 10.3672 0.110415C11.3149 0.00221482 12.2699 -0.0265312 13.2224 0.0244777C14.2495 0.0437485 15.2656 0.23229 16.2307 0.582811C16.8927 0.806072 17.4778 1.2124 17.9182 1.75469C18.2723 2.21034 18.4474 2.77985 18.4104 3.35573C18.387 3.8401 18.4104 4.32812 18.4104 4.81614V7.51927C18.4104 8.05 18.4104 8.5849 18.387 9.11198C18.3832 9.68357 18.206 10.2405 17.8788 10.7093C17.5516 11.178 17.0899 11.5363 16.5547 11.737C16.0354 11.9496 15.4788 12.0557 14.9177 12.049H8.94896C8.3178 12.0369 7.6957 12.2004 7.15208 12.5214C6.4569 12.9583 5.96165 13.6513 5.77344 14.4505C5.66017 14.8534 5.60355 15.2701 5.60521 15.6885V18.3948C5.60521 18.5745 5.60521 18.5708 5.42552 18.5745C4.77708 18.5745 4.12865 18.5943 3.4724 18.5745C2.83015 18.5486 2.21756 18.2972 1.74219 17.8646C1.18959 17.362 0.777604 16.724 0.546875 16.0135C0.313032 15.3677 0.164553 14.6942 0.105208 14.0099C0.0661458 13.5724 0.0505208 13.1349 0.0234375 12.7016C0.0183599 12.6531 0.0105348 12.6049 0 12.5573L0 12.287Z" fill="#3772A4"/>
<path d="M7.91821 2.98851C7.91976 3.20521 7.98543 3.41661 8.10694 3.59605C8.22846 3.77548 8.40038 3.91492 8.60104 3.99678C8.80169 4.07865 9.02209 4.09927 9.23445 4.05605C9.44681 4.01282 9.64161 3.9077 9.7943 3.75392C9.947 3.60014 10.0507 3.40459 10.0925 3.19193C10.1342 2.97927 10.112 2.75902 10.0287 2.55896C9.94542 2.35889 9.80476 2.18796 9.62447 2.06772C9.44418 1.94748 9.23232 1.88331 9.01561 1.8833C8.72389 1.8855 8.44486 2.00289 8.23931 2.20991C8.03375 2.41692 7.91834 2.69678 7.91821 2.98851Z" fill="black"/>
<path d="M7.91821 2.98848C7.91821 2.84417 7.94664 2.70126 8.00187 2.56793C8.05709 2.4346 8.13804 2.31345 8.24009 2.2114C8.34214 2.10936 8.46329 2.02841 8.59662 1.97318C8.72995 1.91795 8.87285 1.88953 9.01717 1.88953C9.16149 1.88953 9.30439 1.91795 9.43772 1.97318C9.57106 2.02841 9.6922 2.10936 9.79425 2.2114C9.8963 2.31345 9.97725 2.4346 10.0325 2.56793C10.0877 2.70126 10.1161 2.84417 10.1161 2.98848C10.1161 3.27995 10.0003 3.55947 9.79425 3.76557C9.58816 3.97166 9.30863 4.08744 9.01717 4.08744C8.72571 4.08744 8.44619 3.97166 8.24009 3.76557C8.034 3.55947 7.91821 3.27995 7.91821 2.98848Z" fill="white"/>
<path d="M25 12.7089C24.9896 12.7433 24.9812 12.7787 24.9765 12.8146C24.9573 13.1777 24.9531 13.5448 24.914 13.9084C24.853 15.0854 24.4603 16.2211 23.7812 17.1844C23.4754 17.5994 23.0765 17.9369 22.6165 18.1695C22.1565 18.4022 21.6483 18.5236 21.1328 18.524H12.7031C12.539 18.524 12.539 18.524 12.539 18.6881V19.274C12.539 19.3948 12.5745 19.4224 12.6875 19.4224H18.426C18.5234 19.4224 18.5588 19.4495 18.5588 19.5511V22.4136C18.5397 22.8282 18.3671 23.2208 18.0745 23.5152C17.6856 23.929 17.2014 24.2413 16.664 24.4251C16.0094 24.6606 15.3288 24.8166 14.637 24.8896C13.689 24.998 12.7338 25.0266 11.7812 24.9756C10.7547 24.9566 9.73838 24.7679 8.77341 24.4172C8.11145 24.194 7.52633 23.7876 7.08591 23.2454C6.73182 22.7897 6.55675 22.2202 6.59373 21.6443C6.61716 21.1599 6.59373 20.6719 6.59373 20.1839V17.4808C6.59373 16.9501 6.59373 16.4152 6.61716 15.8881C6.62085 15.3165 6.79795 14.7596 7.12503 14.2908C7.45211 13.8221 7.91376 13.4637 8.44893 13.2631C8.96819 13.0505 9.52487 12.9444 10.0859 12.9511H16.051C16.6822 12.9632 17.3043 12.7996 17.8479 12.4787C18.5439 12.0408 19.0393 11.3461 19.2265 10.5454C19.3398 10.1425 19.3964 9.72582 19.3948 9.30734V6.60109C19.3948 6.42141 19.3948 6.42557 19.5745 6.42141C20.2229 6.42141 20.8713 6.40214 21.5276 6.42141C22.17 6.44761 22.7826 6.69933 23.2578 7.13234C23.8104 7.63496 24.2223 8.27295 24.4531 8.98338C24.6861 9.63172 24.8332 10.3078 24.8906 10.9943C24.9297 11.4318 24.9453 11.8693 24.9729 12.3027C24.9781 12.3501 24.9859 12.3969 24.9963 12.4433C24.9989 12.5292 25 12.6178 25 12.7089Z" fill="#FFDA4B"/>
<path d="M17.0818 21.8708C17.0802 21.6541 17.0146 21.4427 16.8931 21.2633C16.7715 21.0839 16.5996 20.9444 16.399 20.8626C16.1983 20.7807 15.9779 20.7601 15.7656 20.8033C15.5532 20.8465 15.3584 20.9516 15.2057 21.1054C15.053 21.2592 14.9493 21.4548 14.9075 21.6674C14.8658 21.8801 14.888 22.1003 14.9713 22.3004C15.0546 22.5005 15.1952 22.6714 15.3755 22.7916C15.5558 22.9119 15.7677 22.976 15.9844 22.976C16.2761 22.9738 16.5551 22.8565 16.7607 22.6494C16.9662 22.4424 17.0817 22.1626 17.0818 21.8708Z" fill="black"/>
<path d="M17.0818 21.8708C17.0818 22.1623 16.966 22.4418 16.7599 22.6479C16.5538 22.854 16.2743 22.9698 15.9828 22.9698C15.6913 22.9698 15.4118 22.854 15.2057 22.6479C14.9996 22.4418 14.8839 22.1623 14.8839 21.8708C14.8839 21.5793 14.9996 21.2998 15.2057 21.0937C15.4118 20.8876 15.6913 20.7719 15.9828 20.7719C16.2743 20.7719 16.5538 20.8876 16.7599 21.0937C16.966 21.2998 17.0818 21.5793 17.0818 21.8708Z" fill="white"/>
</g>
<defs>
<clipPath id="clip0_29_280">
<rect width="25" height="25" fill="white"/>
</clipPath>
</defs>
</svg>
