<svg width="25" height="25" viewBox="0 0 25 25" fill="none" xmlns="http://www.w3.org/2000/svg">
<g clip-path="url(#clip0_48_14)">
<path d="M12.4999 0C5.59655 0 0 5.59654 0 12.5001C0 19.4039 5.59655 25 12.4999 25C19.404 25 25 19.4039 25 12.5001C25 5.59699 19.404 0.000597076 12.4998 0.000597076L12.4999 0ZM18.2323 18.0287C18.0084 18.3959 17.5278 18.5123 17.1606 18.2869C14.2257 16.4942 10.5311 16.0882 6.18003 17.0823C5.76075 17.1779 5.3428 16.9151 5.24727 16.4957C5.1513 16.0763 5.41296 15.6583 5.83329 15.5628C10.5949 14.4749 14.6792 14.9433 17.9741 16.9569C18.3413 17.1823 18.4577 17.6615 18.2323 18.0287ZM19.7623 14.6251C19.4802 15.0836 18.8801 15.2284 18.4219 14.9463C15.0619 12.881 9.94017 12.2829 5.96599 13.4893C5.45057 13.645 4.9062 13.3545 4.74977 12.84C4.59454 12.3245 4.88516 11.7812 5.39967 11.6245C9.93928 10.247 15.5829 10.9142 19.4414 13.2854C19.8996 13.5675 20.0444 14.1676 19.7623 14.6252V14.6251ZM19.8936 11.0808C15.865 8.6879 9.21818 8.46787 5.37176 9.63531C4.7541 9.82264 4.10092 9.47395 3.91374 8.85627C3.72656 8.2383 4.07494 7.58555 4.69305 7.39777C9.10847 6.05733 16.4486 6.31631 21.0869 9.06988C21.6436 9.39961 21.8257 10.1171 21.4958 10.672C21.1675 11.2276 20.448 11.4107 19.8942 11.0808H19.8936Z" fill="#1ED760"/>
</g>
<defs>
<clipPath id="clip0_48_14">
<rect width="25" height="25" fill="white"/>
</clipPath>
</defs>
</svg>
