<svg width="25" height="25" viewBox="0 0 25 25" fill="none" xmlns="http://www.w3.org/2000/svg">
<path opacity="0.2" d="M16.875 1.95312H8.125C4.50063 1.95312 1.5625 4.89126 1.5625 8.51562V17.2656C1.5625 20.89 4.50063 23.8281 8.125 23.8281H16.875C20.4994 23.8281 23.4375 20.89 23.4375 17.2656V8.51562C23.4375 4.89126 20.4994 1.95312 16.875 1.95312Z" fill="black"/>
<path d="M16.875 1.5625H8.125C4.50063 1.5625 1.5625 4.50063 1.5625 8.125V16.875C1.5625 20.4994 4.50063 23.4375 8.125 23.4375H16.875C20.4994 23.4375 23.4375 20.4994 23.4375 16.875V8.125C23.4375 4.50063 20.4994 1.5625 16.875 1.5625Z" fill="#424652"/>
<path opacity="0.2" d="M9.76562 15.625C9.04042 15.625 8.34492 15.9131 7.83213 16.4259C7.31934 16.9387 7.03125 17.6342 7.03125 18.3594C7.03125 19.0846 7.31934 19.7801 7.83213 20.2929C8.34492 20.8057 9.04042 21.0938 9.76562 21.0938C10.4908 21.0938 11.1863 20.8057 11.6991 20.2929C12.2119 19.7801 12.5 19.0846 12.5 18.3594V15.625H9.76562Z" fill="black"/>
<path d="M9.76562 15.2344C9.04042 15.2344 8.34492 15.5225 7.83213 16.0353C7.31934 16.548 7.03125 17.2435 7.03125 17.9688C7.03125 18.694 7.31934 19.3895 7.83213 19.9022C8.34492 20.415 9.04042 20.7031 9.76562 20.7031C10.4908 20.7031 11.1863 20.415 11.6991 19.9022C12.2119 19.3895 12.5 18.694 12.5 17.9688V15.2344H9.76562Z" fill="#09C37B"/>
<path opacity="0.2" d="M9.76562 10.1562H12.5V15.625H9.76562C8.25078 15.625 7.03125 14.4055 7.03125 12.8906C7.03125 11.3758 8.25078 10.1562 9.76562 10.1562Z" fill="black"/>
<path opacity="0.2" d="M15.2344 15.625C16.7445 15.625 17.9688 14.4008 17.9688 12.8906C17.9688 11.3805 16.7445 10.1562 15.2344 10.1562C13.7242 10.1562 12.5 11.3805 12.5 12.8906C12.5 14.4008 13.7242 15.625 15.2344 15.625Z" fill="black"/>
<path d="M9.76562 9.76562H12.5V15.2344H9.76562C8.25078 15.2344 7.03125 14.0148 7.03125 12.5C7.03125 10.9852 8.25078 9.76562 9.76562 9.76562Z" fill="#9154DD"/>
<path d="M15.2344 15.2344C16.7445 15.2344 17.9688 14.0102 17.9688 12.5C17.9688 10.9898 16.7445 9.76562 15.2344 9.76562C13.7242 9.76562 12.5 10.9898 12.5 12.5C12.5 14.0102 13.7242 15.2344 15.2344 15.2344Z" fill="#01B1F8"/>
<path opacity="0.2" d="M9.76562 4.6875C8.25078 4.6875 7.03125 5.90703 7.03125 7.42188C7.03125 8.93672 8.25078 10.1562 9.76562 10.1562H12.5V4.6875H9.76562Z" fill="black"/>
<path d="M9.76562 4.29688C8.25078 4.29688 7.03125 5.51641 7.03125 7.03125C7.03125 8.54609 8.25078 9.76562 9.76562 9.76562H12.5V4.29688H9.76562Z" fill="#F24E1E"/>
<path opacity="0.2" d="M12.5 4.6875H15.2344C16.7492 4.6875 17.9688 5.90703 17.9688 7.42188C17.9688 8.93672 16.7492 10.1562 15.2344 10.1562H12.5V4.6875Z" fill="black"/>
<path d="M12.5 4.29688H15.2344C16.7492 4.29688 17.9688 5.51641 17.9688 7.03125C17.9688 8.54609 16.7492 9.76562 15.2344 9.76562H12.5V4.29688Z" fill="#FF7262"/>
<path opacity="0.2" d="M9.76562 4.29688C8.25078 4.29688 7.03125 5.51641 7.03125 7.03125C7.03125 7.0973 7.03661 7.16171 7.04117 7.22656C7.1412 5.80408 8.31683 4.6875 9.76562 4.6875H12.5H15.2344C16.6832 4.6875 17.8588 5.80408 17.9588 7.22656C17.9634 7.16171 17.9688 7.0973 17.9688 7.03125C17.9688 5.51641 16.7492 4.29688 15.2344 4.29688H12.5H9.76562Z" fill="white"/>
<path opacity="0.1" d="M8.12531 1.5625C4.48968 1.5625 1.5625 4.48968 1.5625 8.12531V8.51593C1.5625 4.88031 4.48968 1.95312 8.12531 1.95312H16.8747C20.5103 1.95312 23.4375 4.88031 23.4375 8.51593V8.12531C23.4375 4.48968 20.5103 1.5625 16.8747 1.5625H8.12531Z" fill="white"/>
</svg>
