<svg width="25" height="25" viewBox="0 0 25 25" fill="none" xmlns="http://www.w3.org/2000/svg">
<g clip-path="url(#clip0_28_260)">
<path d="M8.06189 19.326C8.06189 19.326 6.77298 19.8806 8.97917 20.0683C11.6519 20.2939 13.0179 20.2615 15.9633 19.8491C15.9633 19.8491 16.7376 20.2083 17.8191 20.5195C11.2163 22.6132 2.8758 20.3982 8.06189 19.326Z" fill="#5382A1"/>
<path d="M7.25509 16.5939C7.25509 16.5939 5.80946 17.3856 8.01727 17.5546C10.8724 17.7725 13.1271 17.7903 17.0286 17.2345C17.0286 17.2345 17.5683 17.6393 18.4168 17.8606C10.4337 19.5878 1.542 17.9968 7.25509 16.5939Z" fill="#5382A1"/>
<path d="M14.0568 11.9592C15.6837 13.3451 13.6294 14.5922 13.6294 14.5922C13.6294 14.5922 17.7604 13.0144 15.8632 11.0385C14.0913 9.19596 12.7325 8.28045 20.0886 5.1239C20.0886 5.1239 8.54192 7.25759 14.0568 11.9592Z" fill="#E76F00"/>
<path d="M22.7895 21.3469C22.7895 21.3469 23.7433 21.9284 21.739 22.3783C17.9278 23.2325 5.87645 23.4904 2.52864 22.4123C1.32518 22.0249 3.582 21.4874 4.29191 21.3746C5.03227 21.2558 5.45536 21.2779 5.45536 21.2779C4.117 20.5803 -3.19527 22.6476 1.74109 23.2397C15.2033 24.855 26.2814 22.5123 22.7895 21.3469Z" fill="#5382A1"/>
<path d="M8.68172 13.763C8.68172 13.763 2.55163 14.8402 6.5109 15.2314C8.18263 15.397 11.5152 15.3596 14.6194 15.1671C17.1563 15.0088 19.7036 14.6722 19.7036 14.6722C19.7036 14.6722 18.8091 14.9556 18.1619 15.2826C11.9369 16.4939 -0.0886464 15.9304 3.37335 14.6913C6.30117 13.6442 8.68172 13.763 8.68172 13.763Z" fill="#5382A1"/>
<path d="M19.6784 18.3109C26.0064 15.878 23.0805 13.54 21.0384 13.8549C20.5378 13.932 20.3146 13.9988 20.3146 13.9988C20.3146 13.9988 20.5005 13.7834 20.8554 13.6902C24.8955 12.6393 28.0025 16.7897 19.5512 18.4336C19.5512 18.4336 19.6491 18.3688 19.6784 18.3109Z" fill="#5382A1"/>
<path d="M15.8632 0.0268555C15.8632 0.0268555 19.3677 2.62069 12.5393 6.60927C7.06354 9.8088 11.2906 11.6331 12.537 13.7174C9.34073 11.5837 6.99509 9.70542 8.56873 7.95727C10.8785 5.39115 17.2772 4.147 15.8632 0.0268555Z" fill="#E76F00"/>
<path d="M9.30355 24.9035C15.3776 25.1912 24.7051 24.7439 24.926 22.6174C24.926 22.6174 24.5014 23.4236 19.9061 24.0638C14.7217 24.7856 8.32755 24.7013 4.5351 24.2387C4.5351 24.2387 5.31146 24.7141 9.30355 24.9035Z" fill="#5382A1"/>
</g>
<defs>
<clipPath id="clip0_28_260">
<rect width="25" height="25" fill="white"/>
</clipPath>
</defs>
</svg>
