<svg width="25" height="25" viewBox="0 0 25 25" fill="none" xmlns="http://www.w3.org/2000/svg">
<g clip-path="url(#clip0_30_415)">
<path d="M0 0H25V25H0" fill="#181717"/>
<path d="M16.3574 24.3653C15.7226 24.3653 15.5762 24.0723 15.5762 23.7794L15.625 20.3614C15.625 19.1895 15.2344 18.4083 14.7461 18.0176C17.5293 17.7247 20.459 16.6504 20.459 11.8653C20.459 10.4981 19.9707 9.37505 19.1894 8.49615C19.3359 8.20318 19.7265 6.93365 19.043 5.22466C19.043 5.22466 18.0176 4.88287 15.625 6.49419C13.5742 5.90826 11.4258 5.90826 9.37498 6.49419C6.98241 4.88287 5.95702 5.22466 5.95702 5.22466C5.27342 6.93365 5.66405 8.20318 5.81053 8.49615C5.02928 9.37505 4.541 10.4981 4.541 11.8653C4.541 16.6504 7.42186 17.7247 10.2051 18.0176C9.86327 18.3594 9.52147 18.8965 9.42381 19.7266C8.69139 20.0196 6.88475 20.5567 5.81053 18.6524C5.81053 18.6524 5.12694 17.4805 3.85741 17.3829C3.85741 17.3829 2.6367 17.3829 3.80858 18.1641C3.80858 18.1641 4.58983 18.5059 5.17577 19.9708C5.17577 19.9708 5.90819 22.4122 9.37498 21.6309L9.42381 23.7794C9.42381 24.0723 9.27733 24.3653 8.64256 24.3653C7.95897 24.3653 8.05662 25.1954 8.05662 25.1954H16.9433C16.9433 25.1954 17.041 24.3653 16.3574 24.3653Z" fill="white"/>
</g>
<defs>
<clipPath id="clip0_30_415">
<rect width="25" height="25" fill="white"/>
</clipPath>
</defs>
</svg>
