<svg width="25" height="25" viewBox="0 0 25 25" fill="none" xmlns="http://www.w3.org/2000/svg">
<g clip-path="url(#clip0_48_9)">
<path d="M17.5524 0H7.44764C3.34099 0 0 3.34099 0 7.44764V17.5524C0 21.659 3.34099 25 7.44764 25H17.5524C21.659 25 25 21.659 25 17.5524V7.44764C25 3.34099 21.659 0 17.5524 0ZM22.485 17.5524C22.485 20.2766 20.2766 22.485 17.5524 22.485H7.44764C4.72344 22.485 2.515 20.2766 2.515 17.5524V7.44764C2.515 4.72339 4.72344 2.515 7.44764 2.515H17.5524C20.2766 2.515 22.485 4.72339 22.485 7.44764V17.5524Z" fill="url(#paint0_linear_48_9)"/>
<path d="M12.5 6.03418C8.93471 6.03418 6.03412 8.93477 6.03412 12.5C6.03412 16.0653 8.93471 18.9659 12.5 18.9659C16.0653 18.9659 18.9659 16.0653 18.9659 12.5C18.9659 8.93473 16.0653 6.03418 12.5 6.03418ZM12.5 16.451C10.318 16.451 8.54912 14.6821 8.54912 12.5001C8.54912 10.318 10.318 8.54918 12.5 8.54918C14.682 8.54918 16.4509 10.318 16.4509 12.5001C16.4509 14.6821 14.682 16.451 12.5 16.451Z" fill="url(#paint1_linear_48_9)"/>
<path d="M18.9784 7.63192C19.8341 7.63192 20.5278 6.93825 20.5278 6.08256C20.5278 5.22688 19.8341 4.5332 18.9784 4.5332C18.1227 4.5332 17.4291 5.22688 17.4291 6.08256C17.4291 6.93825 18.1227 7.63192 18.9784 7.63192Z" fill="url(#paint2_linear_48_9)"/>
</g>
<defs>
<linearGradient id="paint0_linear_48_9" x1="12.5" y1="24.9272" x2="12.5" y2="0.194179" gradientUnits="userSpaceOnUse">
<stop stop-color="#E09B3D"/>
<stop offset="0.3" stop-color="#C74C4D"/>
<stop offset="0.6" stop-color="#C21975"/>
<stop offset="1" stop-color="#7024C4"/>
</linearGradient>
<linearGradient id="paint1_linear_48_9" x1="12.5" y1="24.9273" x2="12.5" y2="0.19425" gradientUnits="userSpaceOnUse">
<stop stop-color="#E09B3D"/>
<stop offset="0.3" stop-color="#C74C4D"/>
<stop offset="0.6" stop-color="#C21975"/>
<stop offset="1" stop-color="#7024C4"/>
</linearGradient>
<linearGradient id="paint2_linear_48_9" x1="18.9784" y1="24.9271" x2="18.9784" y2="0.194088" gradientUnits="userSpaceOnUse">
<stop stop-color="#E09B3D"/>
<stop offset="0.3" stop-color="#C74C4D"/>
<stop offset="0.6" stop-color="#C21975"/>
<stop offset="1" stop-color="#7024C4"/>
</linearGradient>
<clipPath id="clip0_48_9">
<rect width="25" height="25" fill="white"/>
</clipPath>
</defs>
</svg>
